<mxfile host="app.diagrams.net" agent="Mozilla/5.0 (Windows NT 10.0; Win64; x64) AppleWebKit/537.36 (KHTML, like Gecko) Chrome/129.0.0.0 Safari/537.36" version="26.2.14">
  <diagram name="Página-1" id="O2-HYL0ArtMG39jxVnZ6">
    <mxGraphModel dx="1246" dy="627" grid="1" gridSize="10" guides="1" tooltips="1" connect="1" arrows="1" fold="1" page="1" pageScale="1" pageWidth="827" pageHeight="1169" math="0" shadow="0">
      <root>
        <mxCell id="0" />
        <mxCell id="1" parent="0" />
        <mxCell id="yLvsmtK8ATG3TMYIrcy--1" value="" style="group" vertex="1" connectable="0" parent="1">
          <mxGeometry x="60" y="70" width="675" height="810" as="geometry" />
        </mxCell>
        <mxCell id="yLvsmtK8ATG3TMYIrcy--2" value="" style="edgeStyle=orthogonalEdgeStyle;rounded=0;orthogonalLoop=1;jettySize=auto;html=1;" edge="1" parent="yLvsmtK8ATG3TMYIrcy--1" source="yLvsmtK8ATG3TMYIrcy--3">
          <mxGeometry relative="1" as="geometry">
            <mxPoint x="255" y="80" as="targetPoint" />
          </mxGeometry>
        </mxCell>
        <mxCell id="yLvsmtK8ATG3TMYIrcy--3" value="inicio" style="ellipse;whiteSpace=wrap;html=1;" vertex="1" parent="yLvsmtK8ATG3TMYIrcy--1">
          <mxGeometry x="215" width="80" height="50" as="geometry" />
        </mxCell>
        <mxCell id="yLvsmtK8ATG3TMYIrcy--4" style="edgeStyle=orthogonalEdgeStyle;rounded=0;orthogonalLoop=1;jettySize=auto;html=1;" edge="1" parent="yLvsmtK8ATG3TMYIrcy--1" source="yLvsmtK8ATG3TMYIrcy--5" target="yLvsmtK8ATG3TMYIrcy--8">
          <mxGeometry relative="1" as="geometry">
            <mxPoint x="255" y="150" as="targetPoint" />
          </mxGeometry>
        </mxCell>
        <mxCell id="yLvsmtK8ATG3TMYIrcy--5" value="Acessar o site/app" style="whiteSpace=wrap;html=1;" vertex="1" parent="yLvsmtK8ATG3TMYIrcy--1">
          <mxGeometry x="205" y="80" width="100" height="40" as="geometry" />
        </mxCell>
        <mxCell id="yLvsmtK8ATG3TMYIrcy--6" style="edgeStyle=orthogonalEdgeStyle;rounded=0;orthogonalLoop=1;jettySize=auto;html=1;exitX=0;exitY=0.5;exitDx=0;exitDy=0;" edge="1" parent="yLvsmtK8ATG3TMYIrcy--1" source="yLvsmtK8ATG3TMYIrcy--8">
          <mxGeometry relative="1" as="geometry">
            <mxPoint x="175" y="180" as="targetPoint" />
            <Array as="points">
              <mxPoint x="175" y="180" />
            </Array>
          </mxGeometry>
        </mxCell>
        <mxCell id="yLvsmtK8ATG3TMYIrcy--7" style="edgeStyle=orthogonalEdgeStyle;rounded=0;orthogonalLoop=1;jettySize=auto;html=1;exitX=1;exitY=0.5;exitDx=0;exitDy=0;" edge="1" parent="yLvsmtK8ATG3TMYIrcy--1" source="yLvsmtK8ATG3TMYIrcy--8">
          <mxGeometry relative="1" as="geometry">
            <mxPoint x="335" y="180" as="targetPoint" />
          </mxGeometry>
        </mxCell>
        <mxCell id="yLvsmtK8ATG3TMYIrcy--8" value="Já tem conta?" style="rhombus;whiteSpace=wrap;html=1;" vertex="1" parent="yLvsmtK8ATG3TMYIrcy--1">
          <mxGeometry x="200" y="150" width="110" height="60" as="geometry" />
        </mxCell>
        <mxCell id="yLvsmtK8ATG3TMYIrcy--9" style="edgeStyle=orthogonalEdgeStyle;rounded=0;orthogonalLoop=1;jettySize=auto;html=1;entryX=0.75;entryY=0;entryDx=0;entryDy=0;" edge="1" parent="yLvsmtK8ATG3TMYIrcy--1" source="yLvsmtK8ATG3TMYIrcy--10" target="yLvsmtK8ATG3TMYIrcy--16">
          <mxGeometry relative="1" as="geometry">
            <mxPoint x="285" y="220" as="targetPoint" />
            <Array as="points">
              <mxPoint x="355" y="220" />
              <mxPoint x="283" y="220" />
            </Array>
          </mxGeometry>
        </mxCell>
        <mxCell id="yLvsmtK8ATG3TMYIrcy--10" value="sim" style="text;strokeColor=none;align=center;fillColor=none;html=1;verticalAlign=middle;whiteSpace=wrap;rounded=0;" vertex="1" parent="yLvsmtK8ATG3TMYIrcy--1">
          <mxGeometry x="335" y="170" width="40" height="20" as="geometry" />
        </mxCell>
        <mxCell id="yLvsmtK8ATG3TMYIrcy--11" style="edgeStyle=orthogonalEdgeStyle;rounded=0;orthogonalLoop=1;jettySize=auto;html=1;" edge="1" parent="yLvsmtK8ATG3TMYIrcy--1" source="yLvsmtK8ATG3TMYIrcy--12">
          <mxGeometry relative="1" as="geometry">
            <mxPoint x="115" y="180" as="targetPoint" />
          </mxGeometry>
        </mxCell>
        <mxCell id="yLvsmtK8ATG3TMYIrcy--12" value="&lt;font style=&quot;vertical-align: inherit;&quot;&gt;&lt;font style=&quot;vertical-align: inherit;&quot;&gt;não&lt;/font&gt;&lt;/font&gt;" style="text;strokeColor=none;align=center;fillColor=none;html=1;verticalAlign=middle;whiteSpace=wrap;rounded=0;" vertex="1" parent="yLvsmtK8ATG3TMYIrcy--1">
          <mxGeometry x="135" y="170" width="40" height="20" as="geometry" />
        </mxCell>
        <mxCell id="yLvsmtK8ATG3TMYIrcy--13" style="edgeStyle=orthogonalEdgeStyle;rounded=0;orthogonalLoop=1;jettySize=auto;html=1;entryX=0.25;entryY=0;entryDx=0;entryDy=0;" edge="1" parent="yLvsmtK8ATG3TMYIrcy--1" source="yLvsmtK8ATG3TMYIrcy--14" target="yLvsmtK8ATG3TMYIrcy--16">
          <mxGeometry relative="1" as="geometry">
            <mxPoint x="205" y="216" as="targetPoint" />
            <Array as="points">
              <mxPoint x="75" y="216" />
              <mxPoint x="228" y="216" />
            </Array>
          </mxGeometry>
        </mxCell>
        <mxCell id="yLvsmtK8ATG3TMYIrcy--14" value="criar conta" style="rounded=0;whiteSpace=wrap;html=1;" vertex="1" parent="yLvsmtK8ATG3TMYIrcy--1">
          <mxGeometry x="35" y="167.5" width="80" height="25" as="geometry" />
        </mxCell>
        <mxCell id="yLvsmtK8ATG3TMYIrcy--15" style="edgeStyle=orthogonalEdgeStyle;rounded=0;orthogonalLoop=1;jettySize=auto;html=1;" edge="1" parent="yLvsmtK8ATG3TMYIrcy--1" source="yLvsmtK8ATG3TMYIrcy--16" target="yLvsmtK8ATG3TMYIrcy--19">
          <mxGeometry relative="1" as="geometry">
            <mxPoint x="255" y="320" as="targetPoint" />
          </mxGeometry>
        </mxCell>
        <mxCell id="yLvsmtK8ATG3TMYIrcy--16" value="fazer login" style="rounded=0;whiteSpace=wrap;html=1;" vertex="1" parent="yLvsmtK8ATG3TMYIrcy--1">
          <mxGeometry x="200" y="260" width="110" height="30" as="geometry" />
        </mxCell>
        <mxCell id="yLvsmtK8ATG3TMYIrcy--17" style="edgeStyle=orthogonalEdgeStyle;rounded=0;orthogonalLoop=1;jettySize=auto;html=1;exitX=0;exitY=0.5;exitDx=0;exitDy=0;" edge="1" parent="yLvsmtK8ATG3TMYIrcy--1" source="yLvsmtK8ATG3TMYIrcy--19">
          <mxGeometry relative="1" as="geometry">
            <mxPoint x="175" y="350" as="targetPoint" />
          </mxGeometry>
        </mxCell>
        <mxCell id="yLvsmtK8ATG3TMYIrcy--18" style="edgeStyle=orthogonalEdgeStyle;rounded=0;orthogonalLoop=1;jettySize=auto;html=1;" edge="1" parent="yLvsmtK8ATG3TMYIrcy--1" source="yLvsmtK8ATG3TMYIrcy--19">
          <mxGeometry relative="1" as="geometry">
            <mxPoint x="335" y="350" as="targetPoint" />
          </mxGeometry>
        </mxCell>
        <mxCell id="yLvsmtK8ATG3TMYIrcy--19" value="&lt;font style=&quot;vertical-align: inherit;&quot;&gt;&lt;font style=&quot;vertical-align: inherit;&quot;&gt;&lt;font style=&quot;vertical-align: inherit;&quot;&gt;&lt;font style=&quot;vertical-align: inherit;&quot;&gt;&lt;font style=&quot;vertical-align: inherit;&quot;&gt;&lt;font style=&quot;vertical-align: inherit;&quot;&gt;login bem sucedido?&lt;/font&gt;&lt;/font&gt;&lt;/font&gt;&lt;/font&gt;&lt;/font&gt;&lt;/font&gt;" style="rhombus;whiteSpace=wrap;html=1;" vertex="1" parent="yLvsmtK8ATG3TMYIrcy--1">
          <mxGeometry x="200" y="320" width="110" height="60" as="geometry" />
        </mxCell>
        <mxCell id="yLvsmtK8ATG3TMYIrcy--20" style="edgeStyle=orthogonalEdgeStyle;rounded=0;orthogonalLoop=1;jettySize=auto;html=1;" edge="1" parent="yLvsmtK8ATG3TMYIrcy--1" source="yLvsmtK8ATG3TMYIrcy--21">
          <mxGeometry relative="1" as="geometry">
            <mxPoint x="355" y="400" as="targetPoint" />
          </mxGeometry>
        </mxCell>
        <mxCell id="yLvsmtK8ATG3TMYIrcy--21" value="sim" style="text;strokeColor=none;align=center;fillColor=none;html=1;verticalAlign=middle;whiteSpace=wrap;rounded=0;" vertex="1" parent="yLvsmtK8ATG3TMYIrcy--1">
          <mxGeometry x="335" y="340" width="40" height="20" as="geometry" />
        </mxCell>
        <mxCell id="yLvsmtK8ATG3TMYIrcy--22" style="edgeStyle=orthogonalEdgeStyle;rounded=0;orthogonalLoop=1;jettySize=auto;html=1;" edge="1" parent="yLvsmtK8ATG3TMYIrcy--1" source="yLvsmtK8ATG3TMYIrcy--23">
          <mxGeometry relative="1" as="geometry">
            <mxPoint x="105" y="350" as="targetPoint" />
          </mxGeometry>
        </mxCell>
        <mxCell id="yLvsmtK8ATG3TMYIrcy--23" value="&lt;font style=&quot;vertical-align: inherit;&quot;&gt;&lt;font style=&quot;vertical-align: inherit;&quot;&gt;não&lt;/font&gt;&lt;/font&gt;" style="text;strokeColor=none;align=center;fillColor=none;html=1;verticalAlign=middle;whiteSpace=wrap;rounded=0;" vertex="1" parent="yLvsmtK8ATG3TMYIrcy--1">
          <mxGeometry x="135" y="340" width="40" height="20" as="geometry" />
        </mxCell>
        <mxCell id="yLvsmtK8ATG3TMYIrcy--24" style="edgeStyle=orthogonalEdgeStyle;rounded=0;orthogonalLoop=1;jettySize=auto;html=1;" edge="1" parent="yLvsmtK8ATG3TMYIrcy--1" source="yLvsmtK8ATG3TMYIrcy--25" target="yLvsmtK8ATG3TMYIrcy--26">
          <mxGeometry relative="1" as="geometry">
            <mxPoint x="65" y="410" as="targetPoint" />
          </mxGeometry>
        </mxCell>
        <mxCell id="yLvsmtK8ATG3TMYIrcy--25" value="&lt;font style=&quot;vertical-align: inherit;&quot;&gt;&lt;font style=&quot;vertical-align: inherit;&quot;&gt;mostrar erro&lt;/font&gt;&lt;/font&gt;" style="rounded=0;whiteSpace=wrap;html=1;" vertex="1" parent="yLvsmtK8ATG3TMYIrcy--1">
          <mxGeometry x="25" y="337.5" width="80" height="25" as="geometry" />
        </mxCell>
        <mxCell id="yLvsmtK8ATG3TMYIrcy--26" value="&lt;font style=&quot;vertical-align: inherit;&quot;&gt;&lt;font style=&quot;vertical-align: inherit;&quot;&gt;fim&lt;/font&gt;&lt;/font&gt;" style="ellipse;whiteSpace=wrap;html=1;" vertex="1" parent="yLvsmtK8ATG3TMYIrcy--1">
          <mxGeometry x="25" y="390" width="80" height="50" as="geometry" />
        </mxCell>
        <mxCell id="yLvsmtK8ATG3TMYIrcy--27" style="edgeStyle=orthogonalEdgeStyle;rounded=0;orthogonalLoop=1;jettySize=auto;html=1;" edge="1" parent="yLvsmtK8ATG3TMYIrcy--1" source="yLvsmtK8ATG3TMYIrcy--28">
          <mxGeometry relative="1" as="geometry">
            <mxPoint x="355" y="470" as="targetPoint" />
          </mxGeometry>
        </mxCell>
        <mxCell id="yLvsmtK8ATG3TMYIrcy--28" value="&lt;font style=&quot;vertical-align: inherit;&quot;&gt;&lt;font style=&quot;vertical-align: inherit;&quot;&gt;exibir tela de seleção de conta&lt;/font&gt;&lt;/font&gt;" style="rounded=0;whiteSpace=wrap;html=1;" vertex="1" parent="yLvsmtK8ATG3TMYIrcy--1">
          <mxGeometry x="292.5" y="400" width="125" height="40" as="geometry" />
        </mxCell>
        <mxCell id="yLvsmtK8ATG3TMYIrcy--29" style="edgeStyle=orthogonalEdgeStyle;rounded=0;orthogonalLoop=1;jettySize=auto;html=1;" edge="1" parent="yLvsmtK8ATG3TMYIrcy--1" source="yLvsmtK8ATG3TMYIrcy--31">
          <mxGeometry relative="1" as="geometry">
            <mxPoint x="265" y="500" as="targetPoint" />
          </mxGeometry>
        </mxCell>
        <mxCell id="yLvsmtK8ATG3TMYIrcy--30" style="edgeStyle=orthogonalEdgeStyle;rounded=0;orthogonalLoop=1;jettySize=auto;html=1;" edge="1" parent="yLvsmtK8ATG3TMYIrcy--1" source="yLvsmtK8ATG3TMYIrcy--31">
          <mxGeometry relative="1" as="geometry">
            <mxPoint x="445" y="500" as="targetPoint" />
          </mxGeometry>
        </mxCell>
        <mxCell id="yLvsmtK8ATG3TMYIrcy--31" value="" style="rhombus;whiteSpace=wrap;html=1;" vertex="1" parent="yLvsmtK8ATG3TMYIrcy--1">
          <mxGeometry x="300" y="470" width="110" height="60" as="geometry" />
        </mxCell>
        <mxCell id="yLvsmtK8ATG3TMYIrcy--32" value="&lt;font style=&quot;vertical-align: inherit;&quot;&gt;&lt;font style=&quot;vertical-align: inherit;&quot;&gt;Usuário escolhe&lt;/font&gt;&lt;/font&gt;" style="text;strokeColor=none;align=center;fillColor=none;html=1;verticalAlign=middle;whiteSpace=wrap;rounded=0;container=0;" vertex="1" parent="yLvsmtK8ATG3TMYIrcy--1">
          <mxGeometry x="325" y="485" width="60" height="30" as="geometry" />
        </mxCell>
        <mxCell id="yLvsmtK8ATG3TMYIrcy--33" style="edgeStyle=orthogonalEdgeStyle;rounded=0;orthogonalLoop=1;jettySize=auto;html=1;" edge="1" parent="yLvsmtK8ATG3TMYIrcy--1" source="yLvsmtK8ATG3TMYIrcy--34">
          <mxGeometry relative="1" as="geometry">
            <mxPoint x="135" y="570" as="targetPoint" />
          </mxGeometry>
        </mxCell>
        <mxCell id="yLvsmtK8ATG3TMYIrcy--34" value="&lt;font style=&quot;vertical-align: inherit;&quot;&gt;&lt;font style=&quot;vertical-align: inherit;&quot;&gt;&lt;font style=&quot;vertical-align: inherit;&quot;&gt;&lt;font style=&quot;vertical-align: inherit;&quot;&gt;Selecionar Perfil&lt;/font&gt;&lt;/font&gt;&lt;/font&gt;&lt;/font&gt;" style="text;html=1;align=center;verticalAlign=middle;resizable=0;points=[];autosize=1;strokeColor=none;fillColor=none;" vertex="1" parent="yLvsmtK8ATG3TMYIrcy--1">
          <mxGeometry x="155" y="485" width="110" height="30" as="geometry" />
        </mxCell>
        <mxCell id="yLvsmtK8ATG3TMYIrcy--35" style="edgeStyle=orthogonalEdgeStyle;rounded=0;orthogonalLoop=1;jettySize=auto;html=1;entryX=0.5;entryY=0;entryDx=0;entryDy=0;" edge="1" parent="yLvsmtK8ATG3TMYIrcy--1" source="yLvsmtK8ATG3TMYIrcy--36" target="yLvsmtK8ATG3TMYIrcy--38">
          <mxGeometry relative="1" as="geometry">
            <mxPoint x="615" y="510" as="targetPoint" />
            <Array as="points">
              <mxPoint x="615" y="500" />
            </Array>
          </mxGeometry>
        </mxCell>
        <mxCell id="yLvsmtK8ATG3TMYIrcy--36" value="&lt;font style=&quot;vertical-align: inherit;&quot;&gt;&lt;font style=&quot;vertical-align: inherit;&quot;&gt;&lt;font style=&quot;vertical-align: inherit;&quot;&gt;&lt;font style=&quot;vertical-align: inherit;&quot;&gt;Criar novo Perfil&lt;/font&gt;&lt;/font&gt;&lt;/font&gt;&lt;/font&gt;" style="text;html=1;align=center;verticalAlign=middle;resizable=0;points=[];autosize=1;strokeColor=none;fillColor=none;" vertex="1" parent="yLvsmtK8ATG3TMYIrcy--1">
          <mxGeometry x="445" y="485" width="110" height="30" as="geometry" />
        </mxCell>
        <mxCell id="yLvsmtK8ATG3TMYIrcy--37" value="" style="edgeStyle=orthogonalEdgeStyle;rounded=0;orthogonalLoop=1;jettySize=auto;html=1;" edge="1" parent="yLvsmtK8ATG3TMYIrcy--1" source="yLvsmtK8ATG3TMYIrcy--38" target="yLvsmtK8ATG3TMYIrcy--40">
          <mxGeometry relative="1" as="geometry" />
        </mxCell>
        <mxCell id="yLvsmtK8ATG3TMYIrcy--38" value="Personalizar perfil&lt;div&gt;(nome, tipo: infantil ou normal)&lt;/div&gt;" style="rounded=0;whiteSpace=wrap;html=1;" vertex="1" parent="yLvsmtK8ATG3TMYIrcy--1">
          <mxGeometry x="555" y="520.0000000000001" width="120" height="60" as="geometry" />
        </mxCell>
        <mxCell id="yLvsmtK8ATG3TMYIrcy--39" style="edgeStyle=orthogonalEdgeStyle;rounded=0;orthogonalLoop=1;jettySize=auto;html=1;entryX=0.815;entryY=0.911;entryDx=0;entryDy=0;entryPerimeter=0;" edge="1" parent="yLvsmtK8ATG3TMYIrcy--1" source="yLvsmtK8ATG3TMYIrcy--40" target="yLvsmtK8ATG3TMYIrcy--34">
          <mxGeometry relative="1" as="geometry">
            <mxPoint x="224.9999999999999" y="520.0000000000001" as="targetPoint" />
            <Array as="points">
              <mxPoint x="485" y="650" />
              <mxPoint x="485" y="550" />
              <mxPoint x="245" y="550" />
            </Array>
          </mxGeometry>
        </mxCell>
        <mxCell id="yLvsmtK8ATG3TMYIrcy--40" value="Salvar Perfil" style="whiteSpace=wrap;html=1;rounded=0;" vertex="1" parent="yLvsmtK8ATG3TMYIrcy--1">
          <mxGeometry x="572.5" y="630" width="85" height="30" as="geometry" />
        </mxCell>
        <mxCell id="yLvsmtK8ATG3TMYIrcy--41" style="edgeStyle=orthogonalEdgeStyle;rounded=0;orthogonalLoop=1;jettySize=auto;html=1;exitX=0;exitY=0.5;exitDx=0;exitDy=0;" edge="1" parent="yLvsmtK8ATG3TMYIrcy--1" source="yLvsmtK8ATG3TMYIrcy--43">
          <mxGeometry relative="1" as="geometry">
            <mxPoint x="55" y="610" as="targetPoint" />
          </mxGeometry>
        </mxCell>
        <mxCell id="yLvsmtK8ATG3TMYIrcy--42" style="edgeStyle=orthogonalEdgeStyle;rounded=0;orthogonalLoop=1;jettySize=auto;html=1;exitX=1;exitY=0.5;exitDx=0;exitDy=0;" edge="1" parent="yLvsmtK8ATG3TMYIrcy--1" source="yLvsmtK8ATG3TMYIrcy--43">
          <mxGeometry relative="1" as="geometry">
            <mxPoint x="215" y="610" as="targetPoint" />
            <Array as="points">
              <mxPoint x="215" y="595" />
            </Array>
          </mxGeometry>
        </mxCell>
        <mxCell id="yLvsmtK8ATG3TMYIrcy--43" value="Tipo do Perfil" style="rhombus;whiteSpace=wrap;html=1;" vertex="1" parent="yLvsmtK8ATG3TMYIrcy--1">
          <mxGeometry x="75" y="570" width="120" height="50" as="geometry" />
        </mxCell>
        <mxCell id="yLvsmtK8ATG3TMYIrcy--44" style="edgeStyle=orthogonalEdgeStyle;rounded=0;orthogonalLoop=1;jettySize=auto;html=1;exitX=0.5;exitY=1;exitDx=0;exitDy=0;" edge="1" parent="yLvsmtK8ATG3TMYIrcy--1" source="yLvsmtK8ATG3TMYIrcy--45">
          <mxGeometry relative="1" as="geometry">
            <mxPoint x="214.66666666666674" y="670" as="targetPoint" />
          </mxGeometry>
        </mxCell>
        <mxCell id="yLvsmtK8ATG3TMYIrcy--45" value="infantil" style="text;strokeColor=none;align=center;fillColor=none;html=1;verticalAlign=middle;whiteSpace=wrap;rounded=0;" vertex="1" parent="yLvsmtK8ATG3TMYIrcy--1">
          <mxGeometry x="195" y="610" width="40" height="30" as="geometry" />
        </mxCell>
        <mxCell id="yLvsmtK8ATG3TMYIrcy--46" style="edgeStyle=orthogonalEdgeStyle;rounded=0;orthogonalLoop=1;jettySize=auto;html=1;exitX=0.5;exitY=1;exitDx=0;exitDy=0;" edge="1" parent="yLvsmtK8ATG3TMYIrcy--1" source="yLvsmtK8ATG3TMYIrcy--47">
          <mxGeometry relative="1" as="geometry">
            <mxPoint x="54.66666666666674" y="670" as="targetPoint" />
          </mxGeometry>
        </mxCell>
        <mxCell id="yLvsmtK8ATG3TMYIrcy--47" value="&lt;font style=&quot;vertical-align: inherit;&quot;&gt;&lt;font style=&quot;vertical-align: inherit;&quot;&gt;normal&lt;/font&gt;&lt;/font&gt;" style="text;strokeColor=none;align=center;fillColor=none;html=1;verticalAlign=middle;whiteSpace=wrap;rounded=0;" vertex="1" parent="yLvsmtK8ATG3TMYIrcy--1">
          <mxGeometry x="35" y="610" width="40" height="30" as="geometry" />
        </mxCell>
        <mxCell id="yLvsmtK8ATG3TMYIrcy--48" style="edgeStyle=orthogonalEdgeStyle;rounded=0;orthogonalLoop=1;jettySize=auto;html=1;exitX=0.5;exitY=1;exitDx=0;exitDy=0;entryX=0.5;entryY=0;entryDx=0;entryDy=0;" edge="1" parent="yLvsmtK8ATG3TMYIrcy--1" source="yLvsmtK8ATG3TMYIrcy--49" target="yLvsmtK8ATG3TMYIrcy--52">
          <mxGeometry relative="1" as="geometry" />
        </mxCell>
        <mxCell id="yLvsmtK8ATG3TMYIrcy--49" value="exibir catalogo completo" style="rounded=0;whiteSpace=wrap;html=1;" vertex="1" parent="yLvsmtK8ATG3TMYIrcy--1">
          <mxGeometry y="670" width="110" height="30" as="geometry" />
        </mxCell>
        <mxCell id="yLvsmtK8ATG3TMYIrcy--50" style="edgeStyle=orthogonalEdgeStyle;rounded=0;orthogonalLoop=1;jettySize=auto;html=1;exitX=0.5;exitY=1;exitDx=0;exitDy=0;entryX=0.5;entryY=0;entryDx=0;entryDy=0;" edge="1" parent="yLvsmtK8ATG3TMYIrcy--1" source="yLvsmtK8ATG3TMYIrcy--51" target="yLvsmtK8ATG3TMYIrcy--52">
          <mxGeometry relative="1" as="geometry" />
        </mxCell>
        <mxCell id="yLvsmtK8ATG3TMYIrcy--51" value="exibir catalogo infantil" style="rounded=0;whiteSpace=wrap;html=1;" vertex="1" parent="yLvsmtK8ATG3TMYIrcy--1">
          <mxGeometry x="160" y="670" width="110" height="30" as="geometry" />
        </mxCell>
        <mxCell id="yLvsmtK8ATG3TMYIrcy--52" value="&lt;font style=&quot;vertical-align: inherit;&quot;&gt;&lt;font style=&quot;vertical-align: inherit;&quot;&gt;Fim&lt;/font&gt;&lt;/font&gt;" style="ellipse;whiteSpace=wrap;html=1;" vertex="1" parent="yLvsmtK8ATG3TMYIrcy--1">
          <mxGeometry x="80" y="750" width="110" height="60" as="geometry" />
        </mxCell>
      </root>
    </mxGraphModel>
  </diagram>
</mxfile>
